<?xml version="1.0" standalone="no"?>
<!DOCTYPE svg PUBLIC "-//W3C//DTD SVG 20010904//EN"
 "http://www.w3.org/TR/2001/REC-SVG-20010904/DTD/svg10.dtd">
<svg version="1.0" xmlns="http://www.w3.org/2000/svg"
 width="208.000000pt" height="208.000000pt" viewBox="0 0 208.000000 208.000000"
 preserveAspectRatio="xMidYMid meet">
<metadata>
Created by potrace 1.11, written by Peter Selinger 2001-2013
</metadata>
<g transform="translate(0.000000,208.000000) scale(0.100000,-0.100000)"
fill="#000000" stroke="none">
<path d="M787 2060 c-86 -27 -182 -102 -216 -170 -44 -87 23 -200 118 -200 34
0 101 34 101 51 0 5 19 22 42 39 60 44 118 42 165 -5 34 -34 35 -38 31 -90 -5
-63 -32 -100 -82 -114 -17 -4 -132 -9 -256 -10 -261 -2 -335 -7 -372 -22 -55
-22 -73 -140 -29 -197 25 -34 87 -39 425 -37 l304 3 60 32 c81 43 148 112 184
187 28 60 30 68 26 175 -2 96 -7 120 -27 160 -35 68 -112 142 -185 178 -53 26
-76 32 -149 34 -59 2 -103 -3 -140 -14z"/>
<path d="M1523 1943 c-64 -8 -107 -95 -83 -167 16 -50 49 -71 138 -91 89 -20
120 -34 161 -74 49 -48 64 -88 67 -173 3 -119 -43 -194 -146 -241 -50 -23 -31
-23 -1090 -30 -508 -4 -521 -5 -549 -49 -21 -33 -21 -100 -1 -145 17 -38 23
-42 67 -50 26 -4 399 -8 828 -7 l780 1 58 22 c124 48 250 175 298 298 19 50
22 77 22 193 0 116 -3 143 -22 193 -48 123 -176 251 -296 296 -55 21 -165 32
-232 24z"/>
<path d="M550 770 c-98 -6 -121 -16 -144 -64 -31 -65 -11 -137 47 -171 29 -18
58 -19 342 -22 663 -6 638 -4 675 -66 36 -59 18 -130 -43 -167 -60 -37 -113
-22 -181 50 -22 23 -49 46 -61 50 -27 10 -86 -2 -120 -24 -104 -68 -34 -240
129 -317 56 -27 70 -29 171 -29 95 0 117 3 160 24 175 83 264 270 215 452 -45
166 -168 269 -340 284 -87 8 -725 8 -850 0z"/>
</g>
</svg>
